<svg xmlns="http://www.w3.org/2000/svg" xmlns:xlink="http://www.w3.org/1999/xlink" width="200" height="200" viewBox="0 0 200 200">
  <defs>
    <path id="mag-glass-a" d="M173.3,162.9 L144.6,134.3 C152.3,124.6 156.9,112.2 156.9,99 C156.9,67.7 131.5,42.3 100.2,42.3 C68.9,42.3 43.5,67.7 43.5,99 C43.5,130.3 68.9,155.7 100.2,155.7 C113.6,155.7 126,151.1 135.5,143.2 L164.2,171.8 C165.5,173.1 167,173.7 168.6,173.7 C170.2,173.7 171.9,173.2 173,171.8 C175.7,169.3 175.7,165.3 173.3,162.9 Z M100.3,138.6 C78.2,138.6 60.3,120.8 60.3,98.6 C60.3,76.4 78.2,58.7 100.3,58.7 C122.4,58.7 140.3,76.5 140.3,98.7 C140.3,120.9 122.4,138.6 100.3,138.6 Z M88,31.7 L88,39.6 C63.5,44.8 44.4,64.4 40.5,89.3 L30.5,89.3 C27.4,89.3 25,86.9 25,83.8 L25,58 C25,54.9 27.4,52.5 30.5,52.5 L51.1,52.5 L51.1,31.7 C51.1,28.8 53.5,26.2 56.6,26.2 L82.4,26.2 C85.5,26.1 88,28.7 88,31.7 Z M114.2,65.2 L114.2,83.8 C114.2,86.9 111.7,89.3 108.7,89.3 L88,89.3 L88,109.9 C88,113 85.6,115.4 82.5,115.4 L68.1,115.4 C65.6,110.5 64.1,104.8 64.1,98.7 C64.1,78.6 80.5,62.4 100.4,62.4 C105.3,62.4 109.9,63.3 114.2,65.2 Z"/>
  </defs>
  <g fill="none" fill-rule="evenodd">
    <rect width="200" height="200"/>
    <use fill="#CACBCC" fill-rule="nonzero" xlink:href="#mag-glass-a"/>
  </g>
</svg>
